<svg width="159" height="60" viewBox="0 0 159 60" fill="none" xmlns="http://www.w3.org/2000/svg">
<g clip-path="url(#clip0_8758_26492)">
<path d="M38.508 19.7439L37.6396 18.2191C37.5715 18.0996 37.4767 17.9974 37.3626 17.9206C37.2485 17.8438 37.1182 17.7943 36.9819 17.7762C36.8455 17.758 36.7068 17.7716 36.5766 17.8159C36.4464 17.8602 36.3281 17.934 36.2311 18.0315L34.2339 20.027C34.0879 20.1738 33.997 20.3665 33.9768 20.5725C33.9565 20.7786 34.0081 20.9853 34.1227 21.1576C34.851 22.2705 35.4346 23.4716 35.8595 24.7319C36.6533 27.0878 36.8749 29.5988 36.5061 32.0574C36.1374 34.516 35.1888 36.8515 33.7387 38.8708C32.2887 40.8902 30.3788 42.5355 28.1671 43.6706C25.9553 44.8058 23.5051 45.3983 21.019 45.3991C18.4598 45.4061 15.9385 44.7802 13.6796 43.5772L17.0575 40.1975C19.1507 40.9892 21.4332 41.1349 23.6101 40.6157C25.7869 40.0965 27.758 38.9364 29.2685 37.2852C30.7791 35.634 31.7596 33.5677 32.0835 31.3534C32.4074 29.139 32.0596 26.8785 31.0852 24.8639C31.0233 24.7348 30.9314 24.6226 30.8172 24.5364C30.7029 24.4503 30.5697 24.3928 30.4287 24.3688C30.2876 24.3449 30.1429 24.355 30.0066 24.3986C29.8703 24.4421 29.7465 24.5177 29.6454 24.619L27.6239 26.6266C27.5161 26.7343 27.4376 26.8677 27.396 27.0142C27.3543 27.1608 27.3509 27.3155 27.3859 27.4638L27.5596 28.1897C27.8584 29.4614 27.7796 30.7926 27.3326 32.0201C26.8856 33.2476 26.09 34.3179 25.0434 35.0996C23.9969 35.8814 22.7448 36.3406 21.441 36.4209C20.1371 36.5012 18.8382 36.1991 17.7036 35.5517L16.8126 35.0411C16.6424 34.9431 16.4445 34.904 16.2497 34.9301C16.055 34.9562 15.8743 35.0459 15.7359 35.1853L7.48462 43.4348C7.39455 43.5249 7.32476 43.6332 7.27991 43.7524C7.23507 43.8716 7.21621 43.999 7.2246 44.1261C7.23298 44.2532 7.26842 44.3771 7.32854 44.4894C7.38866 44.6017 7.47207 44.6999 7.57319 44.7773L8.78891 45.7099C12.2949 48.4117 16.5998 49.8707 21.026 49.8573C24.5498 49.8528 28.0109 48.924 31.0636 47.1638C34.1163 45.4036 36.6539 42.8734 38.4232 39.8259C40.1924 36.7783 41.1313 33.3201 41.1462 29.7962C41.1611 26.2724 40.2514 22.8063 38.508 19.7439Z" fill="white"/>
<path d="M33.2582 13.7435C29.7527 11.0407 25.4476 9.58107 21.0211 9.59442C17.4956 9.59716 14.0325 10.525 10.9778 12.2854C7.92317 14.0457 5.38395 16.5768 3.61387 19.6258C1.84378 22.6748 0.904815 26.1349 0.890785 29.6604C0.876754 33.186 1.78815 36.6534 3.53391 39.7164L4.40228 41.2396C4.47067 41.3589 4.56563 41.461 4.67981 41.5378C4.79398 41.6146 4.9243 41.664 5.06067 41.6823C5.19704 41.7006 5.33579 41.6873 5.46617 41.6433C5.59655 41.5994 5.71506 41.526 5.81251 41.4289L7.80629 39.4351C7.95131 39.2881 8.04148 39.0958 8.06171 38.8903C8.08194 38.6848 8.03102 38.4786 7.91745 38.3062C7.18851 37.1937 6.60486 35.9926 6.18071 34.732C5.38693 32.3761 5.16526 29.865 5.53403 27.4065C5.9028 24.9479 6.85142 22.6124 8.30147 20.593C9.75152 18.5736 11.6614 16.9284 13.8731 15.7932C16.0849 14.658 18.5351 14.0656 21.0211 14.0648C23.5803 14.059 26.1012 14.6867 28.3589 15.8918L24.9792 19.2698C23.2862 18.6281 21.4626 18.4071 19.6654 18.6258C17.8681 18.8445 16.1507 19.4963 14.661 20.5251C13.1712 21.554 11.9535 22.9293 11.1125 24.5326C10.2716 26.136 9.83252 27.9196 9.83307 29.7302C9.83307 29.916 9.88344 30.7635 9.89907 30.9094C10.036 32.1921 10.3926 33.4417 10.9533 34.6035C11.0153 34.7325 11.1074 34.8448 11.2218 34.9309C11.3362 35.017 11.4696 35.0745 11.6107 35.0984C11.7519 35.1224 11.8967 35.1122 12.0331 35.0687C12.1696 35.0252 12.2936 34.9496 12.3948 34.8484L14.4163 32.8251C14.524 32.7177 14.6025 32.5846 14.6444 32.4384C14.6864 32.2923 14.6904 32.1378 14.656 31.9897L14.4823 31.262C14.1831 29.9903 14.2617 28.6589 14.7086 27.4312C15.1555 26.2036 15.9512 25.1332 16.998 24.3515C18.0447 23.5698 19.297 23.1108 20.601 23.0309C21.905 22.951 23.2039 23.2536 24.3383 23.9017L25.2293 24.4123C25.3998 24.5095 25.5975 24.548 25.792 24.522C25.9865 24.4959 26.1671 24.4068 26.306 24.2681L34.5556 16.0186C34.6458 15.9285 34.7157 15.8202 34.7607 15.7009C34.8057 15.5816 34.8247 15.4541 34.8165 15.3268C34.8083 15.1996 34.773 15.0756 34.713 14.9631C34.6531 14.8506 34.5698 14.7521 34.4687 14.6744L33.2582 13.7435Z" fill="white"/>
<path d="M67.1703 35.2828C67.0198 35.1606 66.8308 35.0959 66.637 35.1004C66.4432 35.1049 66.2573 35.1781 66.1126 35.3071C64.8187 36.3109 63.3182 37.2401 61.1247 37.2401C57.1094 37.2401 53.8425 33.8587 53.8425 29.6992C53.8425 25.5397 57.0972 22.1287 61.0952 22.1287C62.8319 22.1287 64.7076 22.8599 66.0866 24.0704C66.1643 24.1606 66.2609 24.2325 66.3696 24.2811C66.4782 24.3297 66.5962 24.3539 66.7153 24.3517C66.8184 24.3435 66.9185 24.3129 67.0085 24.2619C67.0985 24.2109 67.1763 24.1408 67.2363 24.0565L68.5423 22.7123C68.6254 22.6318 68.691 22.5351 68.735 22.4281C68.7789 22.3211 68.8002 22.2061 68.7976 22.0905C68.7927 21.973 68.7637 21.8578 68.7123 21.752C68.6609 21.6462 68.5882 21.5522 68.4989 21.4757C66.2186 19.4889 63.9278 18.6031 61.0639 18.6031C54.9506 18.6031 49.9766 23.6084 49.9766 29.7599C49.9789 32.7006 51.1474 35.5203 53.226 37.6004C55.3045 39.6806 58.1233 40.8514 61.0639 40.856C62.4453 40.8723 63.8163 40.6153 65.098 40.0996C66.3797 39.584 67.5467 38.8199 68.5319 37.8514C68.6183 37.7633 68.6862 37.6587 68.7316 37.5438C68.7769 37.429 68.7988 37.3062 68.7959 37.1828C68.7935 37.0845 68.7714 36.9877 68.7308 36.8982C68.6903 36.8087 68.632 36.7283 68.5597 36.6618L67.1703 35.2828Z" fill="white"/>
<path d="M76.6764 18.9053H74.6982C74.4775 18.9127 74.2679 19.0039 74.1121 19.1604C73.9562 19.3169 73.8659 19.5269 73.8594 19.7476V39.7201C73.8654 39.9412 73.9556 40.1516 74.1115 40.3084C74.2674 40.4653 74.4772 40.5568 74.6982 40.5642H76.6764C76.8974 40.5568 77.1072 40.4653 77.2631 40.3084C77.419 40.1516 77.5091 39.9412 77.5152 39.7201V19.7476C77.5087 19.5269 77.4184 19.3169 77.2625 19.1604C77.1067 19.0039 76.8971 18.9127 76.6764 18.9053Z" fill="white"/>
<path d="M100.084 25.6282C100.084 21.922 97.0328 18.9053 93.2815 18.9053H85.124C84.9012 18.9062 84.6879 18.9953 84.5306 19.1532C84.3734 19.3111 84.2852 19.5248 84.2852 19.7476V39.7201C84.2847 39.9432 84.3728 40.1574 84.53 40.3156C84.6873 40.4739 84.9009 40.5632 85.124 40.5642H87.0726C87.2936 40.5567 87.5035 40.4653 87.6594 40.3084C87.8152 40.1516 87.9054 39.9412 87.9115 39.7201V32.2921H91.9998L95.9161 40.1334C95.9874 40.2619 96.0919 40.3689 96.2187 40.4431C96.3455 40.5174 96.4899 40.5562 96.6369 40.5555H98.9745C99.1222 40.5604 99.2685 40.5262 99.3988 40.4563C99.529 40.3865 99.6385 40.2835 99.7161 40.1578C99.79 40.025 99.8288 39.8755 99.8288 39.7236C99.8288 39.5716 99.79 39.4222 99.7161 39.2894L95.7424 31.8839C98.4274 30.6908 100.084 28.3184 100.084 25.6282ZM96.4284 25.689C96.4284 27.5699 94.8775 29.1625 93.0418 29.1625H87.9723V22.3701H93.0348C94.8741 22.3701 96.4215 23.8897 96.4215 25.689H96.4284Z" fill="white"/>
<path d="M121.379 35.2828C121.228 35.1606 121.039 35.0959 120.845 35.1004C120.652 35.1049 120.466 35.1781 120.321 35.3071C119.027 36.3109 117.527 37.2401 115.333 37.2401C111.318 37.2401 108.051 33.8587 108.051 29.6992C108.051 25.5397 111.304 22.1287 115.302 22.1287C117.038 22.1287 118.914 22.8599 120.295 24.0704C120.373 24.1614 120.47 24.2339 120.58 24.2826C120.69 24.3312 120.809 24.3549 120.929 24.3517C121.032 24.3435 121.132 24.3129 121.222 24.2619C121.312 24.2109 121.39 24.1408 121.45 24.0565L122.756 22.7123C122.839 22.6317 122.904 22.5349 122.948 22.4279C122.991 22.3209 123.012 22.206 123.009 22.0905C123.005 21.973 122.977 21.8577 122.926 21.7519C122.874 21.646 122.802 21.552 122.712 21.4757C120.437 19.4889 118.147 18.6031 115.283 18.6031C109.169 18.6031 104.195 23.6084 104.195 29.76C104.198 32.7006 105.366 35.5203 107.445 37.6004C109.523 39.6806 112.342 40.8514 115.283 40.856C116.664 40.8721 118.035 40.615 119.317 40.0994C120.598 39.5837 121.765 38.8198 122.751 37.8514C122.837 37.763 122.905 37.6581 122.951 37.543C122.996 37.4278 123.018 37.3048 123.015 37.181C123.012 37.0828 122.99 36.9859 122.95 36.8964C122.909 36.8069 122.851 36.7265 122.778 36.66L121.379 35.2828Z" fill="white"/>
<path d="M139.572 37.2105H131.722V19.7476C131.716 19.5269 131.625 19.3169 131.47 19.1604C131.314 19.0039 131.104 18.9127 130.883 18.9053H128.905C128.682 18.9062 128.469 18.9954 128.312 19.1532C128.155 19.3111 128.066 19.5248 128.066 19.7476V39.7201C128.066 39.9432 128.154 40.1574 128.311 40.3156C128.469 40.4739 128.682 40.5633 128.905 40.5642H139.572C139.683 40.564 139.792 40.5419 139.895 40.4994C139.997 40.4569 140.089 40.3946 140.167 40.3163C140.245 40.2379 140.307 40.1449 140.349 40.0426C140.392 39.9403 140.413 39.8307 140.413 39.7201V38.0615C140.414 37.9503 140.393 37.84 140.351 37.7369C140.31 37.6339 140.248 37.54 140.17 37.4609C140.092 37.3818 139.999 37.319 139.896 37.276C139.794 37.233 139.684 37.2108 139.572 37.2105Z" fill="white"/>
<path d="M157.338 22.2851C157.561 22.2842 157.774 22.1951 157.931 22.0372C158.089 21.8793 158.177 21.6656 158.177 21.4428V19.753C158.177 19.5302 158.089 19.3164 157.931 19.1586C157.774 19.0007 157.561 18.9116 157.338 18.9106H145.354C145.132 18.9116 144.918 19.0007 144.761 19.1586C144.604 19.3164 144.516 19.5302 144.516 19.753V39.7255C144.515 39.9486 144.603 40.1627 144.76 40.321C144.918 40.4792 145.131 40.5686 145.354 40.5695H157.338C157.561 40.5686 157.775 40.4792 157.932 40.321C158.089 40.1627 158.177 39.9486 158.177 39.7255V38.0669C158.177 37.8441 158.089 37.6304 157.931 37.4725C157.774 37.3146 157.561 37.2255 157.338 37.2246H148.133V31.2658H155.863C156.087 31.2654 156.3 31.1764 156.458 31.0185C156.616 30.8606 156.704 30.6466 156.704 30.4235V28.7354C156.698 28.514 156.608 28.3034 156.451 28.1465C156.295 27.9896 156.085 27.8983 155.863 27.8913H148.138V22.2851H157.338Z" fill="white"/>
</g>
<defs>
<clipPath id="clip0_8758_26492">
<rect width="157.206" height="58.5219" fill="white" transform="translate(0.816406 0.491913)"/>
</clipPath>
</defs>
</svg>
