<svg width="24" height="24" viewBox="0 0 24 24" fill="none" xmlns="http://www.w3.org/2000/svg">
<g clip-path="url(#clip0_8758_27659)">
<path fill-rule="evenodd" clip-rule="evenodd" d="M3.36172 8.79954C3.36172 6.97302 4.8424 5.49233 6.66892 5.49233H17.3373C19.1638 5.49233 20.6445 6.97302 20.6445 8.79954V15.2006C20.6445 17.0271 19.1638 18.5078 17.3373 18.5078H6.66892C4.8424 18.5078 3.36172 17.0271 3.36172 15.2006V8.79954ZM6.66892 3.57202C3.78185 3.57202 1.44141 5.91246 1.44141 8.79954V15.2006C1.44141 18.0877 3.78185 20.4281 6.66892 20.4281H17.3373C20.2244 20.4281 22.5648 18.0877 22.5648 15.2006V8.79954C22.5648 5.91246 20.2244 3.57202 17.3373 3.57202H6.66892ZM10.3643 7.9757C10.0677 7.79772 9.69826 7.79306 9.39724 7.9635C9.09623 8.13393 8.91016 8.45311 8.91016 8.79902V15.2001C8.91016 15.546 9.09623 15.8652 9.39724 16.0356C9.69826 16.206 10.0677 16.2014 10.3643 16.0234L15.6985 12.8229C15.9877 12.6493 16.1647 12.3368 16.1647 11.9995C16.1647 11.6623 15.9877 11.3497 15.6985 11.1762L10.3643 7.9757ZM10.8305 13.5042V10.4948L13.3383 11.9995L10.8305 13.5042Z" fill="#F78787"/>
</g>
<defs>
<clipPath id="clip0_8758_27659">
<rect width="24" height="24" fill="white"/>
</clipPath>
</defs>
</svg>
