<svg width="24" height="24" viewBox="0 0 24 24" fill="none" xmlns="http://www.w3.org/2000/svg">
<path d="M9.30663 3.97489C9.2647 3.67022 8.98895 3.45354 8.68301 3.48486L8.50392 3.50319C8.50392 3.50319 5.85166 3.79283 3.91522 5.3486H3.89039L3.86557 5.37343C3.43111 5.77064 3.24078 6.26303 2.94286 6.98299C2.64495 7.70295 2.32635 8.61738 2.04498 9.63111C1.4864 11.6586 1.03125 14.1164 1.03125 16.3673V16.5576L1.12642 16.7479C1.82569 17.9768 3.07113 18.7589 4.22555 19.3009C5.37996 19.8429 6.37301 20.1284 7.064 20.1533C7.34099 20.1685 7.60331 20.0278 7.74385 19.7887L7.75086 19.7767L8.5784 18.312C9.45559 18.5106 10.4652 18.643 11.6279 18.643C12.7906 18.643 13.8002 18.5106 14.6774 18.312L15.5049 19.7767L15.5119 19.7887C15.6524 20.0278 15.9148 20.1685 16.1918 20.1533C16.8786 20.1284 17.8758 19.8429 19.0302 19.3009C20.1846 18.7589 21.4259 17.9768 22.1293 16.7479L22.2245 16.5576V16.3673C22.2245 14.1164 21.7694 11.6586 21.2066 9.62697C20.9253 8.61324 20.6067 7.69881 20.3088 6.97885C20.0108 6.25889 19.8205 5.77064 19.386 5.36929L19.3612 5.34446H19.3364C17.4 3.78869 14.7477 3.49905 14.7477 3.49905L14.5997 3.48428C14.2849 3.45287 13.9985 3.66792 13.9408 3.97902C13.9408 3.97902 13.7215 5.36426 13.585 5.99319C12.7285 5.87319 12.0292 5.84837 11.6237 5.84837C11.2182 5.84837 10.519 5.87319 9.66247 5.98905C9.52593 5.36012 9.30663 3.97489 9.30663 3.97489ZM8.05291 5.15827C8.08601 5.26585 8.27164 6.17573 8.30061 6.26262C7.54056 6.45264 6.6455 6.72507 5.83535 7.11551C5.4583 7.29722 5.35011 7.76718 5.57266 8.12166C5.79337 8.4732 6.25587 8.57755 6.63088 8.39961C8.51737 7.50447 10.8483 7.36276 11.6237 7.36276C12.3992 7.36276 14.7269 7.50447 16.6156 8.39965C16.9912 8.57767 17.4542 8.47298 17.6753 8.12096C17.8978 7.76654 17.7904 7.29662 17.4138 7.11418C16.6032 6.72151 15.7074 6.44954 14.9469 6.26262C14.9758 6.17573 15.1615 5.26585 15.1946 5.15827C15.9021 5.29895 17.2469 5.62583 18.364 6.50715C18.3599 6.51129 18.6495 6.94575 18.9061 7.57054C19.1709 8.21188 19.4688 9.06425 19.7336 10.0283C20.2467 11.8737 20.648 14.1246 20.6811 16.1066C20.2053 16.8348 19.3198 17.4886 18.3889 17.9272C17.5737 18.3078 16.9283 18.4485 16.5435 18.5189L16.1669 17.8817C16.3904 17.7989 16.6138 17.7079 16.8041 17.621C17.2987 17.4027 17.6975 17.1778 17.9924 16.9913C18.3409 16.7709 18.3791 16.3056 18.1075 15.9955C17.8327 15.6817 17.3414 15.6424 16.9804 15.8515C16.7727 15.9718 16.51 16.109 16.1876 16.2514C15.1946 16.69 13.6802 17.1245 11.6237 17.1245C9.56731 17.1245 8.05291 16.6859 7.05987 16.2514C6.73807 16.1093 6.4758 15.9724 6.26827 15.8522C5.90662 15.6428 5.4144 15.6822 5.13906 15.9965C4.86764 16.3064 4.90506 16.7712 5.25302 16.9917C5.54818 17.1787 5.94762 17.404 6.44335 17.621C6.63368 17.7079 6.85712 17.7989 7.08055 17.8817L6.70402 18.5189C6.31922 18.4485 5.67374 18.3078 4.85861 17.9272C3.9235 17.4886 3.04217 16.8348 2.56633 16.1066C2.59943 14.1246 3.00079 11.8779 3.51386 10.0283C3.77868 9.06425 4.07659 8.21188 4.3414 7.57054C4.60208 6.94575 4.89172 6.51129 4.88344 6.50715C6.00062 5.62583 7.34537 5.30309 8.05291 5.15827ZM8.97562 10.3138C8.3922 10.3138 7.87499 10.649 7.55639 11.071C7.24192 11.4931 7.08469 12.0144 7.08469 12.5854C7.08469 13.1564 7.24192 13.6778 7.55639 14.0998C7.87085 14.5219 8.38806 14.857 8.97562 14.857C9.56317 14.857 10.0762 14.5219 10.3948 14.0998C10.7093 13.6778 10.8665 13.1564 10.8665 12.5854C10.8665 12.0144 10.7093 11.4931 10.3948 11.071C10.0762 10.649 9.55903 10.3138 8.97562 10.3138ZM14.2719 10.3138C13.6884 10.3138 13.1712 10.649 12.8526 11.071C12.5382 11.4931 12.3809 12.0144 12.3809 12.5854C12.3809 13.1564 12.5382 13.6778 12.8526 14.0998C13.1671 14.5219 13.6843 14.857 14.2719 14.857C14.8594 14.857 15.3725 14.5219 15.6911 14.0998C16.0056 13.6778 16.1628 13.1564 16.1628 12.5854C16.1628 12.0144 16.0056 11.4931 15.6911 11.071C15.3725 10.649 14.8553 10.3138 14.2719 10.3138ZM8.97562 11.8282C9.01699 11.8282 9.07078 11.8448 9.16595 11.9689C9.26112 12.0972 9.35629 12.3165 9.35629 12.5854C9.35629 12.8502 9.26112 13.0737 9.16595 13.2019C9.07078 13.3302 9.01699 13.3426 8.97562 13.3426C8.93424 13.3426 8.88045 13.3261 8.78528 13.2019C8.69012 13.0737 8.59495 12.8544 8.59495 12.5854C8.59495 12.3206 8.69012 12.0972 8.78528 11.9689C8.88045 11.8406 8.93424 11.8282 8.97562 11.8282ZM14.2719 11.8282C14.3132 11.8282 14.367 11.8448 14.4622 11.9689C14.5574 12.0972 14.6525 12.3165 14.6525 12.5854C14.6525 12.8502 14.5574 13.0737 14.4622 13.2019C14.367 13.3302 14.3132 13.3426 14.2719 13.3426C14.2305 13.3426 14.1767 13.3261 14.0815 13.2019C13.9864 13.0737 13.8912 12.8544 13.8912 12.5854C13.8912 12.3206 13.9864 12.0972 14.0815 11.9689C14.1767 11.8406 14.2305 11.8282 14.2719 11.8282Z" fill="#9277FF"/>
</svg>
