<svg width="192" height="50" viewBox="0 0 192 50" fill="none" xmlns="http://www.w3.org/2000/svg">
<path fill-rule="evenodd" clip-rule="evenodd" d="M14.4938 7.56684C11.3221 7.95665 7.83159 9.58675 4.85488 12.1028C4.25245 12.5989 2.99443 13.8215 2.99443 13.8924C2.99443 13.9278 3.59686 14.5657 4.34104 15.3098L5.68765 16.6742L5.12066 17.312C3.02987 19.6686 1.61239 22.0606 0.761896 24.5943C0.23034 26.189 0 27.5002 0 28.9708C0 30.2997 0.177184 31.3805 0.584711 32.4259L0.744178 32.8512L4.69541 36.8024C7.99106 40.0981 8.73524 40.8068 9.14276 41.0726C9.99325 41.6396 10.9855 42.0294 12.084 42.2597C12.8105 42.4192 14.4938 42.4723 15.2911 42.366C18.445 41.9762 21.7052 40.4879 24.5579 38.1136C25.3021 37.4934 26.5601 36.3063 26.5601 36.2354C26.5601 36.2 25.9399 35.5621 25.1958 34.8002L23.8314 33.4182L24.2567 32.9752C25.3021 31.8767 26.5778 30.1225 27.322 28.7405C28.3851 26.8092 29.0761 24.7184 29.3064 22.8048C29.395 21.972 29.3419 20.2002 29.2001 19.5268C28.9521 18.3929 28.5623 17.4715 27.9776 16.5856C27.6763 16.1249 27.0739 15.5047 23.7428 12.1559L19.8448 8.25786L19.4372 8.0984C18.888 7.86806 17.754 7.60228 17.0629 7.5314C16.3719 7.46053 15.2911 7.47825 14.4938 7.56684ZM17.8426 8.61223C18.1261 8.68311 18.5867 8.78942 18.8348 8.87801C19.2955 9.03748 19.3132 9.03748 20.0397 9.76394C20.6775 10.4018 20.7661 10.4904 20.6066 10.4727C19.7562 10.3132 18.3918 10.2778 17.3287 10.4195C13.9268 10.8448 10.4185 12.5635 7.19372 15.3984C6.87479 15.6819 6.59129 15.93 6.53814 15.9654C6.48498 16.0009 6.20148 15.7705 5.36871 14.9377L4.27017 13.8392L4.97891 13.2191C7.9379 10.6321 11.1981 9.00204 14.3874 8.54136C15.2379 8.41733 17.1338 8.47049 17.8426 8.61223ZM22.4848 14.2467C24.044 14.4771 25.4084 15.1504 26.4183 16.1603C27.4106 17.1526 28.0484 18.4283 28.3496 20.023C28.4737 20.7317 28.4737 22.3264 28.3496 23.1591C27.9421 25.7283 26.755 28.3684 24.9123 30.7781C24.487 31.3451 23.4771 32.5322 23.3176 32.6563C23.229 32.7271 23.1227 32.6386 22.2013 31.7172C21.6343 31.1502 21.1736 30.6718 21.1736 30.6541C21.1736 30.6364 21.3331 30.4415 21.528 30.2288C24.7351 26.6851 26.2411 22.2555 25.178 19.5091C24.7528 18.446 23.8669 17.6487 22.7152 17.2943C22.1304 17.1171 21.1028 17.0285 20.3409 17.1171C19.1714 17.2234 17.7362 17.6841 16.3542 18.3574C14.9722 19.0307 13.7141 19.8812 12.4916 20.9798L11.9423 21.4582L10.8969 20.4128L9.8515 19.3674L10.2945 18.9599C13.0054 16.4261 16.6023 14.6188 19.6853 14.2113C20.3054 14.1581 21.9001 14.1581 22.4848 14.2467ZM7.83159 20.3596C7.44178 20.8026 6.94566 21.4227 6.6976 21.7417C3.75633 25.6575 2.40972 29.9099 2.95899 33.5776L2.99443 33.808L2.26797 33.0992C1.57695 32.4259 1.54151 32.3728 1.39976 31.9475C0.0177188 27.9786 1.75413 22.5036 5.84711 17.9145L6.32552 17.3829L7.42406 18.4815L8.52261 19.58L7.83159 20.3596ZM21.6698 18.0916L21.8115 18.1271L21.7761 18.8713C21.7406 19.7572 21.6166 20.4836 21.4394 21.1038C20.8724 22.9642 19.827 24.8247 18.3032 26.5788L17.7185 27.2521L16.6023 26.1359L15.486 25.0196L15.9998 24.4526C17.0984 23.2477 18.1083 21.848 18.7285 20.6608C19.0651 20.023 19.5081 18.9421 19.6321 18.446C19.703 18.1448 19.703 18.1448 19.9688 18.1094C20.1105 18.0916 20.27 18.0739 20.3232 18.0562C20.4649 18.0562 21.5457 18.0562 21.6698 18.0916ZM18.4981 18.8713C18.2501 19.5623 17.7008 20.6254 17.1693 21.4227C16.5845 22.3087 16.177 22.8402 15.362 23.7616L14.795 24.4172L13.6787 23.3009L12.5624 22.1846L12.9345 21.848C14.0862 20.8203 15.4328 19.8989 16.6731 19.2611C17.3464 18.9244 18.445 18.4815 18.6045 18.4637C18.6222 18.4637 18.5867 18.6409 18.4981 18.8713ZM35.4725 19.5446C35.4193 19.5977 35.4016 21.0684 35.4016 26.4548C35.4016 33.0106 35.4016 33.2941 35.5079 33.3827C35.5965 33.4713 35.88 33.4713 38.272 33.4713C39.7249 33.4713 41.3019 33.4359 41.7626 33.4182C43.623 33.2941 45.0582 32.6917 46.1568 31.5932C47.025 30.725 47.5743 29.5201 47.8577 27.9254C47.9818 27.1458 47.9818 25.5157 47.8577 24.7538C47.3971 22.1846 45.9264 20.5191 43.5699 19.8458C42.4182 19.5268 42.3296 19.5091 38.8213 19.4914C36.2167 19.4914 35.5257 19.4914 35.4725 19.5446ZM99.9857 19.7749C99.9325 19.8281 99.9148 20.271 99.9148 21.405V22.9642H99.2415C98.7985 22.9642 98.5505 22.982 98.4973 23.0351C98.4087 23.1237 98.4087 24.9664 98.4973 25.0727C98.5505 25.1259 98.7985 25.1436 99.2415 25.1436H99.9148L99.9325 28.2975C99.9502 31.3805 99.9502 31.4691 100.074 31.8235C100.411 32.798 101.102 33.3296 102.218 33.4713C102.98 33.5599 104.061 33.5245 104.805 33.3827L104.965 33.3473L104.947 32.0538L104.929 30.7604L104.22 30.725C103.458 30.6895 103.334 30.6541 103.246 30.4946C103.21 30.4237 103.193 29.3606 103.193 27.7837V25.1791L104.096 25.1613L105 25.1436V24.0628V22.982L104.096 22.9642L103.193 22.9465V21.4227C103.193 20.4836 103.175 19.8635 103.14 19.7926C103.086 19.6863 102.998 19.6863 101.58 19.6863C100.464 19.7218 100.039 19.7395 99.9857 19.7749ZM41.9929 22.7693C43.0737 23.0528 43.7825 23.8147 44.066 24.931C44.2786 25.7815 44.2786 27.199 44.0483 28.0849C43.8179 28.9531 43.2864 29.6441 42.5776 29.9808C41.9575 30.282 41.5854 30.3351 40.3097 30.3706L39.158 30.406V26.5079V22.6099L40.3982 22.6453C41.3019 22.663 41.7449 22.6985 41.9929 22.7693ZM52.8189 22.8402C51.0471 23.1591 49.6828 24.3286 49.0803 26.0295C48.283 28.2621 48.6728 30.8136 50.0194 32.2488C50.7282 32.9929 51.4015 33.3827 52.4291 33.6485C54.3959 34.1446 56.5044 33.6308 57.9042 32.3196C58.2408 32.0184 59.109 30.9199 59.109 30.8135C59.109 30.6895 58.861 30.5301 57.851 30.0162C57.2309 29.6973 56.717 29.4315 56.6993 29.4315C56.6816 29.4315 56.5753 29.591 56.469 29.7859C56.2209 30.2643 55.7071 30.7958 55.335 30.9907C54.2187 31.54 52.9075 31.2211 52.3405 30.2643C52.1811 29.9808 52.0216 29.4847 52.0216 29.2189V29.024H55.5653C58.2408 29.024 59.109 29.0063 59.1622 28.9531C59.2508 28.8645 59.2508 28.1558 59.1445 27.447C58.861 25.5511 58.0636 24.1868 56.7879 23.4249C56.3626 23.1769 55.5476 22.8934 55.016 22.8048C54.4845 22.7162 53.3505 22.7339 52.8189 22.8402ZM64.46 22.7693C63.9639 22.8402 63.5564 22.9288 63.2374 23.0351C61.4479 23.6021 60.2607 25.0727 59.8886 27.1635C59.7469 27.9609 59.8 29.2366 59.9949 29.9985C60.2607 31.0262 60.6505 31.6995 61.3593 32.3728C61.9794 32.9575 62.7059 33.365 63.6804 33.6308C63.9639 33.7194 64.2474 33.7371 64.9739 33.7371C65.8066 33.7371 65.9306 33.7194 66.3913 33.5776C67.3127 33.2941 68.0214 32.8689 68.6593 32.1956C69.0845 31.7526 69.563 31.097 69.563 30.9553C69.563 30.9021 69.4744 30.8136 69.3858 30.7427C69.0137 30.5123 67.295 29.6618 67.2064 29.6618C67.1532 29.6618 67.0646 29.7859 66.976 29.9631C66.7634 30.4237 66.4799 30.725 66.037 30.9376C65.7003 31.097 65.594 31.1325 65.2219 31.1148C64.7258 31.1148 64.4069 30.9907 63.9993 30.6364C62.9362 29.6973 62.8653 27.0927 63.8753 25.9055C64.5132 25.1613 65.7003 25.1613 66.4622 25.8878C66.5862 26.0118 66.7634 26.2422 66.852 26.4016C66.9406 26.5611 67.0469 26.7029 67.1001 26.7029C67.2241 26.7383 69.4035 25.4803 69.4389 25.3562C69.4566 25.2499 69.2263 24.8956 68.8896 24.4703C68.3404 23.797 67.2595 23.1414 66.3205 22.9288C65.8421 22.8048 64.8144 22.7339 64.46 22.7693ZM92.8805 22.8934C92.2958 22.9997 91.7643 23.2123 91.339 23.5312L91.0024 23.7793L90.9846 23.4249L90.9669 23.0706L89.6026 23.0528C88.3977 23.0351 88.2206 23.0528 88.132 23.1414C88.0257 23.23 88.0257 23.4958 88.0257 30.0517C88.0257 35.2786 88.0434 36.8733 88.0965 36.9264C88.2028 37.0328 91.1796 37.0328 91.2681 36.9264C91.3213 36.8733 91.339 36.3417 91.339 34.9065V32.9575L91.8883 33.241C92.6325 33.6131 93.0932 33.7017 93.9614 33.6662C94.9713 33.6131 95.5737 33.4182 96.2293 32.9221C97.1507 32.231 97.7531 31.1679 98.0898 29.6973C98.267 28.9177 98.267 27.5533 98.0898 26.7206C97.8594 25.622 97.4873 24.8778 96.814 24.1691C95.8218 23.0706 94.3689 22.6276 92.8805 22.8934ZM12.97 23.9388C13.9268 24.8956 13.9799 24.9664 13.909 25.0727C13.8559 25.1259 13.6255 25.3917 13.3775 25.6752C12.3853 26.8092 11.4639 28.1912 10.8437 29.4669C10.4008 30.3706 10.135 31.1148 9.86922 32.1247C9.53257 33.4536 9.53257 34.9242 9.90466 35.9519C10.5957 37.901 12.4207 38.8223 14.9722 38.5211C17.435 38.2199 20.27 36.8024 22.6974 34.6585L23.2113 34.1978L24.2567 35.2432L25.3021 36.2886L24.8591 36.6961C22.5911 38.8046 19.5613 40.5233 16.9389 41.1612C15.8758 41.4269 15.1316 41.5155 14.1217 41.5155C12.7751 41.5155 11.7828 41.3384 10.7374 40.8777C9.39082 40.293 8.15052 39.1413 7.51266 37.8655C6.71532 36.2886 6.48498 34.3395 6.83935 32.231C7.33547 29.2898 8.98329 26.1359 11.4107 23.4249C11.6588 23.1414 11.8891 22.9111 11.9069 22.9111C11.9246 22.9111 12.403 23.3718 12.97 23.9388ZM76.0125 22.982C75.3215 23.0883 74.4533 23.4072 73.8863 23.7793L73.7091 23.9033V23.5312C73.7091 23.3186 73.6736 23.1414 73.6382 23.0883C73.5851 23.0351 73.1775 23.0174 72.1321 23.0174C70.821 23.0174 70.6792 23.0174 70.6083 23.1237C70.5197 23.2123 70.5197 23.6553 70.5197 28.2621C70.5197 33.0638 70.5198 33.2941 70.6261 33.3827C70.7147 33.4713 70.9096 33.4713 72.1853 33.4713C73.3193 33.4713 73.6559 33.4536 73.7091 33.4005C73.7445 33.3473 73.78 32.3019 73.78 30.158C73.7977 27.1813 73.7977 26.9686 73.904 26.7737C74.1166 26.3485 74.4887 26.1713 75.5695 25.9941C75.9771 25.9232 76.3846 25.8524 76.4732 25.8346L76.6326 25.7992V24.4172C76.6326 23.0351 76.6149 22.8756 76.4377 22.9111C76.3669 22.9288 76.1897 22.9465 76.0125 22.982ZM77.4654 23.106C77.43 23.1591 77.4123 23.2477 77.43 23.3363C77.4477 23.4072 77.9261 24.9664 78.4931 26.7737C80.7611 34.0738 80.637 33.6485 80.4776 33.932C80.3358 34.2155 80.0878 34.2687 79.2018 34.2687C78.6526 34.2687 78.3691 34.2864 78.3336 34.3395C78.2805 34.3927 78.2627 34.7471 78.2627 35.6153C78.2627 36.4835 78.2805 36.8379 78.3336 36.891C78.4222 36.9796 80.6725 36.9796 81.2572 36.9087C82.2317 36.767 83.029 36.076 83.4897 34.9774C83.596 34.7471 84.4997 32.0007 85.5096 28.8822C87.0511 24.1691 87.3524 23.1946 87.2815 23.1237C87.2283 23.0528 86.9625 23.0351 85.5628 23.0351H83.915L83.8618 23.2832C83.8264 23.4249 83.4897 24.8956 83.0999 26.5788C82.7101 28.2621 82.3912 29.6618 82.3557 29.6796C82.338 29.6973 81.9659 28.2089 81.5584 26.3839L80.7965 23.0351H79.1487C77.7843 23.0351 77.5186 23.0351 77.4654 23.106ZM54.8388 25.3208C55.3704 25.5689 55.7248 26.0473 55.8311 26.632L55.8665 26.8446H53.9706H52.0748L52.1102 26.6674C52.1811 26.3485 52.4823 25.8346 52.7303 25.622C53.1556 25.2499 53.5277 25.1259 54.1124 25.1613C54.3959 25.1791 54.6085 25.2322 54.8388 25.3208ZM93.9436 25.4094C94.4398 25.6752 94.8119 26.2245 94.989 26.9686C95.1131 27.5179 95.1131 28.8291 94.9713 29.3783C94.8473 29.8567 94.5992 30.3529 94.3334 30.6895C93.9082 31.2034 93.0754 31.3451 92.4021 31.0085C91.6225 30.6186 91.2504 29.7504 91.2504 28.2975C91.2504 26.9509 91.6048 25.9941 92.2604 25.5157C92.7742 25.1613 93.3944 25.1259 93.9436 25.4094ZM16.4428 28.2798C14.9899 29.6441 13.1294 30.8667 11.5879 31.4869C11.269 31.6109 10.9855 31.7172 10.9678 31.7172C10.9501 31.7172 11.0209 31.5223 11.1095 31.2742C11.7828 29.4138 12.9522 27.5179 14.352 26.0118L14.6887 25.6575L15.8049 26.756L16.9212 27.8546L16.4428 28.2798ZM18.6753 29.6618L19.7562 30.7427L19.4195 31.0616C17.6477 32.7271 14.919 34.2332 12.9877 34.6408C12.5093 34.7471 11.4462 34.8534 10.9323 34.8534H10.5957V34.0383C10.5957 33.5954 10.6134 33.117 10.6311 33.0106L10.6666 32.798L11.3576 32.5677C13.1117 32.0007 15.3442 30.6009 16.9921 29.0417C17.2578 28.7936 17.5059 28.581 17.5413 28.581C17.5768 28.581 18.0906 29.0594 18.6753 29.6618Z" fill="#1D1D1B"/>
</svg>
