<svg width="98" height="97" viewBox="0 0 98 97" fill="none" xmlns="http://www.w3.org/2000/svg">
<rect x="7.47826" y="6.96019" width="83.0435" height="83.0435" rx="19.5217" fill="#121E28"/>
<rect x="7.47826" y="6.96019" width="83.0435" height="83.0435" rx="19.5217" stroke="#2A3744" stroke-width="0.956522"/>
<g filter="url(#filter0_d_8758_27896)">
<g clip-path="url(#clip0_8758_27896)">
<path d="M67.0014 48.4819C67.0014 58.4228 58.9416 66.4826 49.0007 66.4826C39.0597 66.4826 31 58.4228 31 48.4819C31 38.5409 39.0597 30.4812 49.0007 30.4812C58.9437 30.4812 67.0014 38.5409 67.0014 48.4819Z" fill="url(#paint0_linear_8758_27896)"/>
<path d="M39.8812 49.0866L39.9589 48.9646L44.6416 41.6391C44.71 41.5318 44.8709 41.5429 44.9226 41.6594C45.705 43.4127 46.38 45.5931 46.0637 46.9506C45.9287 47.5091 45.5589 48.2655 45.1427 48.9646C45.0891 49.0663 45.0299 49.1662 44.967 49.2624C44.9374 49.3067 44.8875 49.3326 44.8339 49.3326H40.018C39.8886 49.3326 39.8128 49.1921 39.8812 49.0866Z" fill="#10151A"/>
<path d="M60.7553 50.4478V51.6074C60.7553 51.674 60.7147 51.7332 60.6555 51.759C60.293 51.9144 59.052 52.484 58.5361 53.2016C57.2193 55.0343 56.2132 57.6549 53.9643 57.6549H44.5823C41.2571 57.6549 38.5625 54.9511 38.5625 51.6148V51.5075C38.5625 51.4188 38.6346 51.3466 38.7234 51.3466H43.9535C44.0571 51.3466 44.1329 51.4428 44.1237 51.5445C44.0867 51.8848 44.1496 52.2325 44.3104 52.5488C44.6212 53.1794 45.2648 53.5733 45.9601 53.5733H48.5493V51.5519H45.9897C45.8584 51.5519 45.7807 51.4003 45.8566 51.293C45.8843 51.2505 45.9157 51.2061 45.949 51.1561C46.1913 50.8122 46.5371 50.2777 46.8811 49.6692C47.116 49.2587 47.3435 48.8203 47.5266 48.3802C47.5636 48.3007 47.5932 48.2193 47.6227 48.1398C47.6727 47.9992 47.7244 47.8679 47.7614 47.7366C47.7984 47.6257 47.828 47.5091 47.8576 47.4C47.9445 47.0264 47.9815 46.6307 47.9815 46.2201C47.9815 46.0592 47.9741 45.8909 47.9593 45.73C47.9519 45.5543 47.9297 45.3786 47.9075 45.2029C47.8927 45.0476 47.865 44.8941 47.8354 44.7332C47.7984 44.4983 47.7466 44.2653 47.6874 44.0304L47.6671 43.9416C47.6227 43.7807 47.5858 43.6272 47.534 43.4663C47.3879 42.9614 47.2195 42.4695 47.042 42.009C46.9773 41.8259 46.9033 41.6502 46.8293 41.4745C46.7202 41.21 46.6092 40.9696 46.5076 40.7422C46.4558 40.6386 46.4114 40.5443 46.367 40.4481C46.3171 40.339 46.2653 40.2299 46.2135 40.1263C46.1765 40.0468 46.1339 39.9728 46.1044 39.8988L45.7881 39.3144C45.7437 39.2349 45.8177 39.1406 45.9046 39.1646L47.8835 39.701H47.8891C47.8927 39.701 47.8946 39.7028 47.8965 39.7028L48.1572 39.7749L48.4439 39.8563L48.5493 39.8859V38.7097C48.5493 38.1419 49.0043 37.6814 49.5665 37.6814C49.8476 37.6814 50.1028 37.796 50.2859 37.9828C50.4689 38.1697 50.5836 38.4249 50.5836 38.7097V40.4555L50.7944 40.5147C50.8111 40.5202 50.8278 40.5276 50.8426 40.5387C50.8943 40.5775 50.9683 40.6349 51.0626 40.7052C51.1366 40.7644 51.2161 40.8365 51.3123 40.9104C51.5028 41.064 51.7302 41.2619 51.9799 41.4893C52.0465 41.5467 52.1113 41.6058 52.1704 41.665C52.4922 41.9646 52.8528 42.316 53.1969 42.7044C53.293 42.8135 53.3873 42.9244 53.4835 43.041C53.5797 43.1593 53.6814 43.2758 53.7702 43.3924C53.8867 43.5477 54.0124 43.7086 54.1215 43.8769C54.1733 43.9564 54.2325 44.0378 54.2825 44.1173C54.423 44.33 54.5469 44.5501 54.6653 44.7701C54.7152 44.8719 54.767 44.9828 54.8114 45.092C54.9427 45.386 55.0462 45.6856 55.1128 45.9852C55.1332 46.05 55.148 46.1202 55.1554 46.1831V46.1979C55.1775 46.2867 55.1849 46.381 55.1923 46.4772C55.2219 46.7841 55.2071 47.0912 55.1406 47.4C55.1128 47.5313 55.0758 47.6552 55.0314 47.7865C54.987 47.9123 54.9427 48.0436 54.8854 48.1675C54.7744 48.4246 54.6431 48.6817 54.4877 48.9221C54.4378 49.0108 54.3786 49.1051 54.3194 49.1939C54.2547 49.2882 54.1881 49.377 54.1289 49.464C54.0476 49.5749 53.9606 49.6914 53.8719 49.795C53.7924 49.9041 53.7109 50.0132 53.6222 50.1094C53.4983 50.2555 53.3799 50.3942 53.256 50.5274C53.1821 50.6143 53.1025 50.703 53.0211 50.7826C52.9416 50.8713 52.8602 50.9509 52.7863 51.0248C52.6624 51.1487 52.5588 51.2449 52.4719 51.3244L52.2684 51.5112C52.2389 51.5371 52.2 51.5519 52.1593 51.5519H50.5836V53.5733H52.5662C53.01 53.5733 53.4317 53.4161 53.772 53.1276C53.8885 53.0259 54.3971 52.5857 54.9982 51.9218C55.0185 51.8996 55.0444 51.883 55.074 51.8756L60.55 50.2925C60.6518 50.2629 60.7553 50.3406 60.7553 50.4478Z" fill="#10151A"/>
</g>
</g>
<defs>
<filter id="filter0_d_8758_27896" x="0.784573" y="0.265774" width="96.4309" height="96.4322" filterUnits="userSpaceOnUse" color-interpolation-filters="sRGB">
<feFlood flood-opacity="0" result="BackgroundImageFix"/>
<feColorMatrix in="SourceAlpha" type="matrix" values="0 0 0 0 0 0 0 0 0 0 0 0 0 0 0 0 0 0 127 0" result="hardAlpha"/>
<feOffset/>
<feGaussianBlur stdDeviation="15.1077"/>
<feComposite in2="hardAlpha" operator="out"/>
<feColorMatrix type="matrix" values="0 0 0 0 0.12549 0 0 0 0 0.505882 0 0 0 0 0.886275 0 0 0 0.3 0"/>
<feBlend mode="normal" in2="BackgroundImageFix" result="effect1_dropShadow_8758_27896"/>
<feBlend mode="normal" in="SourceGraphic" in2="effect1_dropShadow_8758_27896" result="shape"/>
</filter>
<linearGradient id="paint0_linear_8758_27896" x1="49.0007" y1="30.4812" x2="49.0007" y2="66.4826" gradientUnits="userSpaceOnUse">
<stop stop-color="#3E99F3"/>
<stop offset="1" stop-color="#2081E2"/>
</linearGradient>
<clipPath id="clip0_8758_27896">
<rect x="31" y="30.4812" width="36.0014" height="36.0014" rx="18.0007" fill="white"/>
</clipPath>
</defs>
</svg>
