<svg width="98" height="97" viewBox="0 0 98 97" fill="none" xmlns="http://www.w3.org/2000/svg">
<rect x="7.47826" y="6.96019" width="83.0435" height="83.0435" rx="19.5217" fill="#121E28"/>
<rect x="7.47826" y="6.96019" width="83.0435" height="83.0435" rx="19.5217" stroke="#2A3744" stroke-width="0.956522"/>
<g filter="url(#filter0_d_8758_27888)">
<circle cx="49.0018" cy="48.5142" r="18.033" fill="url(#paint0_linear_8758_27888)"/>
<path d="M54.4104 44.8924C54.0259 44.6713 53.5315 44.6713 53.0921 44.8924L50.016 46.7171L47.9286 47.8783L44.9074 49.703C44.5229 49.9242 44.0285 49.9242 43.589 49.703L41.227 48.2654C40.8425 48.0442 40.5678 47.6019 40.5678 47.1042V44.3395C40.5678 43.8971 40.7876 43.4548 41.227 43.1783L43.589 41.796C43.9736 41.5748 44.4679 41.5748 44.9074 41.796L47.2694 43.2336C47.6539 43.4548 47.9286 43.8971 47.9286 44.3948V46.2195L50.016 45.003V43.123C50.016 42.6807 49.7962 42.2383 49.3568 41.9619L44.9623 39.363C44.5778 39.1418 44.0834 39.1418 43.644 39.363L39.1396 42.0171C38.7002 42.2383 38.4805 42.6807 38.4805 43.123V48.3207C38.4805 48.763 38.7002 49.2054 39.1396 49.4819L43.589 52.0807C43.9736 52.3019 44.4679 52.3019 44.9074 52.0807L47.9286 50.3113L50.016 49.0948L53.0372 47.3254C53.4217 47.1042 53.9161 47.1042 54.3555 47.3254L56.7175 48.7077C57.102 48.9289 57.3767 49.3713 57.3767 49.8689V52.6336C57.3767 53.076 57.157 53.5183 56.7175 53.7948L54.4104 55.1772C54.0259 55.3983 53.5315 55.3983 53.0921 55.1772L50.7301 53.7948C50.3455 53.5736 50.0709 53.1313 50.0709 52.6336V50.8642L47.9835 52.0807V53.9054C47.9835 54.3477 48.2032 54.7901 48.6427 55.0666L53.0921 57.6654C53.4766 57.8866 53.971 57.8866 54.4104 57.6654L58.8598 55.0666C59.2443 54.8454 59.519 54.403 59.519 53.9054V48.6524C59.519 48.2101 59.2993 47.7677 58.8598 47.4913L54.4104 44.8924Z" fill="#10151A"/>
</g>
<defs>
<filter id="filter0_d_8758_27888" x="0.753323" y="0.265774" width="96.4973" height="96.4969" filterUnits="userSpaceOnUse" color-interpolation-filters="sRGB">
<feFlood flood-opacity="0" result="BackgroundImageFix"/>
<feColorMatrix in="SourceAlpha" type="matrix" values="0 0 0 0 0 0 0 0 0 0 0 0 0 0 0 0 0 0 127 0" result="hardAlpha"/>
<feOffset/>
<feGaussianBlur stdDeviation="15.1077"/>
<feComposite in2="hardAlpha" operator="out"/>
<feColorMatrix type="matrix" values="0 0 0 0 0.509804 0 0 0 0 0.278431 0 0 0 0 0.898039 0 0 0 0.3 0"/>
<feBlend mode="normal" in2="BackgroundImageFix" result="effect1_dropShadow_8758_27888"/>
<feBlend mode="normal" in="SourceGraphic" in2="effect1_dropShadow_8758_27888" result="shape"/>
</filter>
<linearGradient id="paint0_linear_8758_27888" x1="49.0018" y1="30.4812" x2="49.0018" y2="66.5473" gradientUnits="userSpaceOnUse">
<stop stop-color="#965EF4"/>
<stop offset="1" stop-color="#8247E5"/>
</linearGradient>
</defs>
</svg>
