<svg width="98" height="98" viewBox="0 0 98 98" fill="none" xmlns="http://www.w3.org/2000/svg">
<rect x="7.47826" y="4.96019" width="83.0435" height="83.0435" rx="19.5217" fill="#121E28"/>
<rect x="7.47826" y="4.96019" width="83.0435" height="83.0435" rx="19.5217" stroke="#2A3744" stroke-width="0.956522"/>
<g filter="url(#filter0_d_8758_27892)">
<rect x="40.6406" y="39.4102" width="23.7858" height="14.1429" fill="#10151A"/>
<path d="M49.0007 28.4812C39.0768 28.4812 31 36.5267 31 46.4819C31 56.4057 39.0455 64.4826 49.0007 64.4826C58.9558 64.4826 67.0014 56.437 67.0014 46.4819C67.0014 36.558 58.9245 28.4812 49.0007 28.4812ZM62.1803 47.4524H53.8217C53.2582 50.2072 50.5973 51.9917 47.8424 51.4282C45.0875 50.8647 43.3031 48.2037 43.8666 45.4488C44.4301 42.6939 47.091 40.9095 49.8459 41.473C51.9434 41.88 53.54 43.5705 53.8843 45.6992H62.1803C62.6812 45.6992 63.0569 46.1062 63.0569 46.5758C63.0569 47.0767 62.6499 47.4524 62.1803 47.4524Z" fill="#008C73"/>
</g>
<defs>
<filter id="filter0_d_8758_27892" x="0.784573" y="0.837299" width="96.4309" height="96.4322" filterUnits="userSpaceOnUse" color-interpolation-filters="sRGB">
<feFlood flood-opacity="0" result="BackgroundImageFix"/>
<feColorMatrix in="SourceAlpha" type="matrix" values="0 0 0 0 0 0 0 0 0 0 0 0 0 0 0 0 0 0 127 0" result="hardAlpha"/>
<feOffset dy="2.57153"/>
<feGaussianBlur stdDeviation="15.1077"/>
<feComposite in2="hardAlpha" operator="out"/>
<feColorMatrix type="matrix" values="0 0 0 0 0 0 0 0 0 0.54902 0 0 0 0 0.45098 0 0 0 0.3 0"/>
<feBlend mode="normal" in2="BackgroundImageFix" result="effect1_dropShadow_8758_27892"/>
<feBlend mode="normal" in="SourceGraphic" in2="effect1_dropShadow_8758_27892" result="shape"/>
</filter>
</defs>
</svg>
