<svg width="98" height="97" viewBox="0 0 98 97" fill="none" xmlns="http://www.w3.org/2000/svg">
<rect x="7.47826" y="6.96019" width="83.0435" height="83.0435" rx="19.5217" fill="#121E28"/>
<rect x="7.47826" y="6.96019" width="83.0435" height="83.0435" rx="19.5217" stroke="#2A3744" stroke-width="0.956522"/>
<g filter="url(#filter0_d_8758_27906)">
<rect x="31" y="30.4827" width="35.9985" height="35.9985" rx="17.9993" fill="url(#paint0_linear_8758_27906)"/>
<path d="M41.1884 47.0848C41.4201 47.5601 41.9934 48.4995 41.9934 48.4995L48.6215 37.9823L42.1527 42.3181C41.7672 42.5649 41.451 42.899 41.2319 43.2909C40.9373 43.8821 40.7807 44.5279 40.7732 45.1832C40.7657 45.8385 40.9074 46.4875 41.1884 47.0848Z" fill="#10151A"/>
<path d="M38.5621 50.5479C38.6351 51.5539 38.9313 52.5333 39.4307 53.4206C39.93 54.3079 40.6212 55.0824 41.4577 55.6925L48.6128 60.4814C48.6128 60.4814 44.1362 54.2889 40.3603 48.127C39.978 47.476 39.721 46.7642 39.6016 46.0258C39.5488 45.6914 39.5488 45.3513 39.6016 45.0169C39.5032 45.192 39.3121 45.5506 39.3121 45.5506C38.9292 46.3 38.6685 47.1015 38.5389 47.9269C38.4644 48.7994 38.4721 49.6767 38.5621 50.5479Z" fill="#10151A"/>
<path d="M56.8162 51.3789C56.5845 50.9037 56.0112 49.9642 56.0112 49.9642L49.3831 60.4814L55.852 56.1484C56.2374 55.9015 56.5536 55.5674 56.7727 55.1755C57.0678 54.584 57.2246 53.9377 57.2321 53.2818C57.2396 52.6261 57.0976 51.9766 56.8162 51.3789Z" fill="#10151A"/>
<path d="M59.4425 47.9158C59.3695 46.9098 59.0733 45.9304 58.574 45.0431C58.0746 44.1558 57.3835 43.3812 56.5469 42.7712L49.3918 37.9823C49.3918 37.9823 53.8655 44.1748 57.6443 50.3366C58.0256 50.9878 58.2816 51.6996 58.4001 52.4379C58.4529 52.7722 58.4529 53.1124 58.4001 53.4468C58.4985 53.2716 58.6896 52.9131 58.6896 52.9131C59.0725 52.1636 59.3333 51.3622 59.4628 50.5368C59.5383 49.6643 59.5315 48.7871 59.4425 47.9158Z" fill="#10151A"/>
<path d="M41.2319 43.2909C41.451 42.899 41.7672 42.5649 42.1527 42.3181L48.6215 37.9823L41.9934 48.5022C41.9934 48.5022 41.4143 47.5628 41.1884 47.0875C40.907 46.4899 40.765 45.8404 40.7725 45.1846C40.78 44.5288 40.9368 43.8825 41.2319 43.2909ZM38.5621 50.5479C38.6351 51.5539 38.9313 52.5333 39.4307 53.4206C39.93 54.3079 40.6212 55.0824 41.4577 55.6925L48.6128 60.4814C48.6128 60.4814 44.1362 54.2889 40.3603 48.127C39.978 47.476 39.721 46.7642 39.6016 46.0258C39.5488 45.6914 39.5488 45.3513 39.6016 45.0169C39.5032 45.192 39.3121 45.5506 39.3121 45.5506C38.9292 46.3 38.6685 47.1015 38.5389 47.9269C38.4644 48.7994 38.4721 49.6767 38.5621 50.5479ZM56.8046 51.3817C56.5729 50.9064 55.9996 49.967 55.9996 49.967L49.3831 60.4814L55.852 56.1484C56.2374 55.9015 56.5536 55.5674 56.7727 55.1755C57.0678 54.584 57.2246 53.9377 57.2321 53.2818C57.2396 52.6261 57.0976 51.9766 56.8162 51.3789L56.8046 51.3817ZM59.4309 47.9186C59.3579 46.9126 59.0617 45.9331 58.5624 45.0459C58.063 44.1586 57.3719 43.384 56.5353 42.7739L49.3918 37.9823C49.3918 37.9823 53.8655 44.1748 57.6443 50.3366C58.0256 50.9878 58.2816 51.6996 58.4001 52.4379C58.4529 52.7722 58.4529 53.1124 58.4001 53.4468C58.4985 53.2716 58.6896 52.9131 58.6896 52.9131C59.0725 52.1636 59.3333 51.3622 59.4628 50.5368C59.5383 49.6643 59.5315 48.7871 59.4425 47.9158L59.4309 47.9186Z" fill="#10151A"/>
</g>
<defs>
<filter id="filter0_d_8758_27906" x="0.787119" y="0.269785" width="96.4258" height="96.4243" filterUnits="userSpaceOnUse" color-interpolation-filters="sRGB">
<feFlood flood-opacity="0" result="BackgroundImageFix"/>
<feColorMatrix in="SourceAlpha" type="matrix" values="0 0 0 0 0 0 0 0 0 0 0 0 0 0 0 0 0 0 127 0" result="hardAlpha"/>
<feOffset/>
<feGaussianBlur stdDeviation="15.1064"/>
<feComposite in2="hardAlpha" operator="out"/>
<feColorMatrix type="matrix" values="0 0 0 0 0.458824 0 0 0 0 0.721569 0 0 0 0 0.984314 0 0 0 0.3 0"/>
<feBlend mode="normal" in2="BackgroundImageFix" result="effect1_dropShadow_8758_27906"/>
<feBlend mode="normal" in="SourceGraphic" in2="effect1_dropShadow_8758_27906" result="shape"/>
</filter>
<linearGradient id="paint0_linear_8758_27906" x1="48.9993" y1="30.4827" x2="48.9993" y2="66.4812" gradientUnits="userSpaceOnUse">
<stop stop-color="#A09FFE"/>
<stop offset="1" stop-color="#4ACEF7"/>
</linearGradient>
</defs>
</svg>
