<svg width="140" height="24" viewBox="0 0 140 24" fill="none" xmlns="http://www.w3.org/2000/svg">
<path d="M51.8936 7.23389C55.0665 7.23389 57.2056 8.49949 57.2056 10.9772V11.5655H54.3535V10.9772C54.3535 9.979 53.4266 9.47989 51.8936 9.47989H51.5728C50.0041 9.47989 49.1128 9.94335 49.1128 10.6207V10.799C49.1128 11.6189 49.8259 11.8507 52.7136 12.332C55.9756 12.9202 57.4195 13.8828 57.4195 15.897V16.0753C57.4195 18.0896 55.6013 19.5334 51.9471 19.5334H51.6084C47.9185 19.5334 46.0469 18.0717 46.0469 15.594V15.0414H48.8989V15.594C48.8989 16.8596 49.8793 17.2696 51.6262 17.2696H51.9471C53.6048 17.2696 54.5318 16.8774 54.5318 16.1109V15.9505C54.5318 15.184 53.6761 14.8453 50.8063 14.3819C47.7938 13.9006 46.2251 12.9915 46.2251 10.9416V10.7098C46.2251 8.49949 48.2572 7.23389 51.5728 7.23389H51.8936Z" fill="white"/>
<path d="M66.138 19.3549V18.1606H65.7636C65.2111 18.9984 64.195 19.5331 62.769 19.5331H62.4659C60.2556 19.5331 59.0078 18.3388 59.0078 15.7363V10.2104H61.8599V15.2194C61.8599 16.485 62.5194 17.1802 63.8385 17.1802H64.1415C65.4606 17.1802 66.138 16.485 66.138 15.2194V10.2104H68.99V19.3549H66.138Z" fill="white"/>
<path d="M73.9068 10.21V11.333H74.2811C74.9406 10.513 75.921 10.0317 77.2936 10.0317H77.6144C79.9317 10.0317 81.6252 11.333 81.6252 14.2564V15.3081C81.6252 18.2314 79.9317 19.5327 77.6144 19.5327H77.2936C75.8854 19.5327 74.9228 19.0354 74.2811 18.1958H73.9068V23.6325H71.0547V10.21H73.9068ZM73.9068 14.2207V15.3259C73.9068 16.6628 74.8158 17.3045 76.1706 17.3045H76.4914C77.864 17.3045 78.7731 16.645 78.7731 15.3259V14.2207C78.7731 12.9195 77.864 12.2599 76.4914 12.2599H76.1706C74.8158 12.2599 73.9068 12.9016 73.9068 14.2207Z" fill="white"/>
<path d="M88.5412 10.0322C91.4468 10.0322 93.5323 11.4404 93.5323 14.2925V15.4512H85.8674V15.5581C85.8674 16.8772 86.7052 17.5367 88.2025 17.5367H88.5412C89.789 17.5367 90.5733 17.1802 90.8229 16.3068H93.4432C93.1937 18.1963 91.625 19.5332 88.5412 19.5332H88.2025C85.297 19.5332 83.1758 18.1784 83.1758 15.3264V14.2925C83.1758 11.4404 85.2792 10.0322 88.2025 10.0322H88.5412ZM85.8852 13.6508H90.8229C90.7159 12.5991 89.8425 12.0287 88.5234 12.0287H88.1847C86.7765 12.0287 85.9922 12.5991 85.8852 13.6508Z" fill="white"/>
<path d="M98.2427 10.21V11.2617H98.5992C99.134 10.4595 99.9539 10.0317 101.202 10.0317C103.163 10.0317 104.196 11.0121 104.196 13.579V14.1851H101.558V13.8107C101.558 12.866 101.023 12.3669 99.9005 12.3669C98.7775 12.3669 98.2427 12.866 98.2427 13.8107V19.3544H95.3906V10.21H98.2427Z" fill="white"/>
<path d="M115.957 6.16406V19.3549H113.105V18.1962H112.713C112.071 19.0358 111.127 19.5331 109.718 19.5331H109.38C107.062 19.5331 105.387 18.2497 105.387 15.3085V14.2568C105.387 11.3334 107.062 10.0322 109.38 10.0322H109.718C111.091 10.0322 112.053 10.5135 112.713 11.3334H113.105V6.16406H115.957ZM108.239 14.2211V15.3263C108.239 16.6276 109.148 17.3049 110.503 17.3049H110.823C112.196 17.3049 113.105 16.6454 113.105 15.3263V14.2211C113.105 12.9199 112.196 12.2604 110.823 12.2604H110.503C109.148 12.2604 108.239 12.9377 108.239 14.2211Z" fill="white"/>
<path d="M122.98 10.0317C126.207 10.0317 127.668 11.2617 127.668 13.3473V19.3544H124.816V18.1958H124.388C123.675 19.1245 122.659 19.5327 121.108 19.5327C119.183 19.5327 117.793 18.6788 117.793 16.7697C117.793 14.9159 119.023 13.8286 121.875 13.8286H124.816V13.3473C124.816 12.4382 124.192 12.0104 122.962 12.0104H122.641C121.465 12.0104 120.788 12.4203 120.788 13.3116H117.989C117.989 11.2439 119.576 10.0317 122.641 10.0317H122.98ZM120.609 16.4845C120.609 17.0906 121.108 17.4649 122.303 17.4649C123.497 17.4649 124.816 17.0371 124.816 15.7359V15.4685H122.267C121.073 15.4685 120.609 15.8072 120.609 16.4845Z" fill="white"/>
<path d="M134.888 10.0317C137.865 10.0317 140.004 11.4578 140.004 14.2564V15.3081C140.004 18.1423 137.865 19.5327 134.888 19.5327H134.549C131.555 19.5327 129.434 18.1245 129.434 15.3081V14.2564C129.434 11.4578 131.555 10.0317 134.549 10.0317H134.888ZM132.286 14.2207V15.3259C132.286 16.538 132.981 17.3045 134.549 17.3045H134.888C136.457 17.3045 137.152 16.538 137.152 15.3259V14.2207C137.152 13.0086 136.457 12.2599 134.888 12.2599H134.549C132.981 12.2599 132.286 13.0086 132.286 14.2207Z" fill="white"/>
<path d="M27.5416 5.64104L29.6883 14.6031C29.9236 15.5854 29.179 16.5294 28.1689 16.5294H8.80804C6.96372 16.5294 5.31566 15.3777 4.68166 13.6458L4.50582 13.1654C4.41251 12.9106 4.60119 12.6406 4.87263 12.6406H17.5167C17.6665 12.6406 17.7879 12.5192 17.7879 12.3695C17.7879 11.2465 16.8775 10.3361 15.7545 10.3361H6.54084C4.69652 10.3361 3.04847 9.18437 2.41447 7.45246L2.2562 7.0201C2.16289 6.76524 2.35157 6.49527 2.62298 6.49527H14.6361C14.7858 6.49527 14.9072 6.37387 14.9072 6.22413C14.9072 5.10113 13.9969 4.19076 12.8739 4.19076H4.2912C2.44689 4.19076 0.798843 3.03907 0.164842 1.30715L0.0241457 0.922819C-0.0691552 0.667924 0.119521 0.397949 0.390933 0.397949H20.8942C24.056 0.397949 26.8051 2.56632 27.5416 5.64104Z" fill="url(#paint0_linear_8758_25922)"/>
<path d="M35.1395 8.30877L38.15 21.2384C38.3783 22.2182 37.6344 23.1551 36.6284 23.1551H16.4349C14.5222 23.1551 12.8293 21.9179 12.2483 20.0957L12.0437 19.454C11.9232 19.076 12.2052 18.6901 12.6019 18.6901H31.0415C32.0531 18.6901 32.798 17.7433 32.5599 16.7601L29.8665 5.6349C29.7773 5.26617 30.0566 4.91113 30.436 4.91113H30.8598C32.9027 4.91113 34.6762 6.31907 35.1395 8.30877Z" fill="url(#paint1_linear_8758_25922)"/>
<defs>
<linearGradient id="paint0_linear_8758_25922" x1="14.8592" y1="0.397949" x2="14.8592" y2="16.5294" gradientUnits="userSpaceOnUse">
<stop stop-color="#FFC803"/>
<stop offset="1" stop-color="#FFA903"/>
</linearGradient>
<linearGradient id="paint1_linear_8758_25922" x1="25.0667" y1="4.91113" x2="25.0667" y2="23.1551" gradientUnits="userSpaceOnUse">
<stop stop-color="#FF7421"/>
<stop offset="1" stop-color="#EC5901"/>
</linearGradient>
</defs>
</svg>
