<svg width="98" height="59" viewBox="0 0 98 59" fill="none" xmlns="http://www.w3.org/2000/svg">
<rect x="0.664336" y="1.43728" width="96.6713" height="56.6713" rx="11.3357" fill="#121E28"/>
<rect x="0.664336" y="1.43728" width="96.6713" height="56.6713" rx="11.3357" stroke="#2A3744" stroke-width="1.32867"/>
<path fill-rule="evenodd" clip-rule="evenodd" d="M21.551 43.3335L23.3128 48.0245H24.2144L26.0111 43.2163H25.0542L23.7977 46.8375L22.5214 43.1668L21.551 43.3335ZM29.917 43.2157V48.0024H32.768V47.2264H30.825V45.9087H32.3927L32.268 45.118H30.825V43.9929H32.6981V43.2157H29.917ZM39.7813 43.2157V46.3529L37.6308 43.2163H36.7631V48.003H37.6163V44.7082L39.8716 48.0035H40.635V43.2157H39.7813ZM44.5963 43.2157V44.0133H46.0177V48.0041H46.9403V44.0133H48.4456L48.3139 43.2163L44.5963 43.2157ZM56.1659 46.1297V43.2168H55.2428V46.1227C55.2428 46.8596 54.903 47.2898 54.2235 47.2898C53.5504 47.2898 53.2181 46.831 53.2181 46.1028V43.2168H52.302V46.1507C52.302 47.3995 53.0579 48.0869 54.217 48.0869C55.3751 48.0869 56.1654 47.3995 56.1654 46.1292L56.1659 46.1297ZM62.6174 45.9985C63.2066 45.7833 63.5744 45.3466 63.5744 44.6523C63.5744 43.7218 62.9292 43.2163 61.861 43.2163H60.3755V48.003H61.2927V46.1711H61.7088L62.9572 48.0519L63.8937 47.8787L62.6174 45.9985ZM62.6722 44.7007C62.6722 45.1998 62.3185 45.4698 61.7497 45.4698H61.2857V43.951H61.7911C62.3674 43.951 62.6728 44.2215 62.6728 44.7002L62.6722 44.7007ZM70.5941 48.0035V47.2264H68.6522V45.9087H70.2199L70.0952 45.117H68.6528V43.9929H70.5259V43.2168H67.7437V48.0035H70.5941ZM77.5031 46.6363C77.5031 45.8941 77.1429 45.5542 76.1575 45.1519C75.4919 44.8744 75.3392 44.7287 75.3392 44.4237C75.3392 44.1317 75.5408 43.9101 75.9983 43.9101C76.3725 43.9101 76.7817 44.0553 77.1284 44.2839L77.2671 43.4513C76.9204 43.2711 76.5467 43.1609 76.0048 43.1609C75.1102 43.1609 74.458 43.653 74.458 44.5001C74.458 45.2423 74.8322 45.5467 75.7618 45.9286C76.4553 46.2265 76.622 46.3723 76.622 46.7262C76.622 47.108 76.3306 47.3092 75.9069 47.3092C75.4285 47.3092 74.9295 47.122 74.5274 46.8859L74.3876 47.7249C74.858 47.9479 75.3725 48.0618 75.893 48.0584C76.8166 48.0584 77.5026 47.5727 77.5026 46.6358L77.5031 46.6363ZM18.5914 38.9894H28.1686V38.5162C26.1982 38.4769 25.5278 38.2015 25.5278 37.0188V22.1962H32.7013V37.0188C32.7013 38.2021 31.9917 38.4764 30.2578 38.5167V38.99H39.7173V38.5167C37.3131 38.4774 36.84 38.2021 36.84 37.0194V20.7365L31.4798 20.9731H25.5283V17.3073C25.5283 14.2717 26.0015 13.0492 26.8283 12.2215C27.538 11.5514 28.524 11.1964 29.825 11.1964C31.4798 11.1964 32.7411 12.0247 33.2148 12.9314C32.5438 13.4047 32.0712 14.2319 32.0712 15.0209C32.0712 16.7151 33.2927 17.3863 34.554 17.3863C35.9341 17.3863 36.8803 16.3612 36.8803 14.9026C36.8803 12.8911 34.8696 10.487 29.7853 10.487C27.1842 10.487 25.0558 11.1571 23.5187 12.6948C22.1386 14.1147 21.3897 16.1638 21.3897 19.5145V20.8548L18 21.7223V22.2354H21.3897V37.0183C21.3897 38.2015 20.8376 38.4758 18.5908 38.5162V38.9894H18.5914ZM48.1473 31.6566L49.9214 29.8829L54.2955 36.2293C55.2417 37.6094 55.1235 38.3193 53.0751 38.5167V38.99H62.4158V38.5167C60.6024 38.3198 60.2083 38.0047 58.5137 35.6L52.6015 27.2416L54.7305 25.1128C57.2519 22.6678 58.6713 21.761 60.9572 21.2888V20.8155H52.6015V21.2888C55.3595 21.8008 55.6358 22.9437 53.9412 24.7181L48.1473 30.6719V10.7236L40.8555 10.9592V11.4325C43.6146 11.5116 44.0092 12.1026 44.0092 13.4429V37.0183C44.0092 38.2015 43.4963 38.4758 41.2103 38.5162V38.9894H50.237V38.5162C48.6994 38.4769 48.1473 38.2015 48.1473 37.0188V31.6566ZM70.1049 37.4125C68.0942 37.4125 67.1888 36.0722 67.1888 34.1801C67.1888 31.4991 68.3318 30.3562 73.5737 29.3305V35.2053C72.7844 36.3094 71.5232 37.4131 70.1044 37.4131L70.1049 37.4125ZM67.8184 39.2266C70.2619 39.2266 72.1151 37.8471 73.6124 36.1126H73.7699C74.0064 38.2413 74.8344 39.1481 77.0413 39.1481C78.4209 39.1481 79.4456 38.6748 80.8251 37.8073L80.6676 37.4136C78.3816 38.3602 77.672 37.5319 77.672 35.6011V26.4149C77.672 22.3543 75.3064 20.6198 70.8538 20.6198C66.4001 20.6198 63.5233 22.315 63.5233 24.6411C63.5233 25.9427 64.4292 26.9673 65.8093 26.9673C67.3469 26.9673 68.1748 26.0207 68.1748 24.6411C68.1748 23.8521 67.7797 23.1427 67.1103 22.5113C67.8189 21.8025 69.0404 21.369 70.3807 21.369C72.7065 21.369 73.5742 22.7878 73.5742 25.7448V28.5829C72.6667 29.0159 68.0555 29.2525 65.1389 30.8687C63.4841 31.7755 62.7744 33.3132 62.7744 34.8508C62.7744 37.0586 64.3109 39.2266 67.8189 39.2266" fill="white"/>
</svg>
