<svg width="217" height="132" viewBox="0 0 217 132" fill="none" xmlns="http://www.w3.org/2000/svg">
<rect width="217" height="132" fill="#E5E5E5"/>
<g id="Index &#62;1200" clip-path="url(#clip0_7352_750)">
<rect width="1920" height="8158" transform="translate(-1140 -6033)" fill="#0A1117"/>
<g id="Ellipse 1307" opacity="0.7" filter="url(#filter0_f_7352_750)">
<ellipse cx="-197" cy="-535.5" rx="263" ry="37.5" fill="#5C9DFF"/>
</g>
<g id="Ellipse 1308" opacity="0.7" filter="url(#filter1_f_7352_750)">
<ellipse cx="-197" cy="110.5" rx="263" ry="67.5" fill="#5C9DFF"/>
</g>
<g id="Ellipse 1309" opacity="0.7" filter="url(#filter2_f_7352_750)">
<ellipse cx="-197" cy="895.5" rx="263" ry="39.5" fill="#5C9DFF"/>
</g>
<g id="Backed by">
<g id="Frame 5611">
<g id="Group 5643">
<g id="Logo_4">
<rect x="1" y="1" width="215" height="130" rx="29" fill="#121E28"/>
<rect x="1" y="1" width="215" height="130" rx="29" stroke="#2A3744" stroke-width="2"/>
<path id="Vector" fill-rule="evenodd" clip-rule="evenodd" d="M50.4609 95.0129L54.1626 104.869H56.0569L59.832 94.7665H57.8213L55.1815 102.375L52.4998 94.6625L50.4609 95.0129ZM68.0384 94.7654V104.823H74.0286V103.192H69.9463V100.423H73.2401L72.9781 98.7623H69.9463V96.3983H73.8817V94.7654H68.0384ZM88.764 94.7654V101.357L84.2457 94.7665H82.4225V104.824H84.2152V97.9012L88.9538 104.825H90.5578V94.7654H88.764ZM98.8806 94.7654V96.4412H101.867V104.826H103.806V96.4412H106.968L106.692 94.7665L98.8806 94.7654ZM123.189 100.888V94.7676H121.25V100.873C121.25 102.421 120.536 103.325 119.108 103.325C117.694 103.325 116.996 102.361 116.996 100.831V94.7676H115.071V100.932C115.071 103.556 116.659 105 119.095 105C121.528 105 123.188 103.556 123.188 100.887L123.189 100.888ZM136.744 100.612C137.982 100.16 138.755 99.2425 138.755 97.7837C138.755 95.8287 137.399 94.7665 135.155 94.7665H132.034V104.824H133.961V100.975H134.835L137.458 104.927L139.426 104.563L136.744 100.612ZM136.86 97.8854C136.86 98.934 136.116 99.5013 134.921 99.5013H133.946V96.3101H135.008C136.219 96.3101 136.861 96.8785 136.861 97.8842L136.86 97.8854ZM153.504 104.825V103.192H149.424V100.423H152.718L152.456 98.76H149.425V96.3983H153.361V94.7676H147.515V104.825H153.504ZM168.02 101.952C168.02 100.393 167.263 99.6787 165.193 98.8335C163.795 98.2504 163.474 97.9441 163.474 97.3034C163.474 96.6898 163.897 96.2242 164.859 96.2242C165.645 96.2242 166.504 96.5293 167.233 97.0096L167.524 95.2603C166.796 94.8818 166.011 94.6501 164.872 94.6501C162.993 94.6501 161.622 95.6841 161.622 97.4639C161.622 99.0233 162.409 99.6629 164.362 100.465C165.819 101.091 166.169 101.397 166.169 102.141C166.169 102.943 165.557 103.366 164.667 103.366C163.661 103.366 162.613 102.973 161.768 102.477L161.474 104.24C162.463 104.708 163.544 104.947 164.637 104.94C166.578 104.94 168.019 103.92 168.019 101.951L168.02 101.952ZM44.2425 85.8856H64.365V84.8912C60.2251 84.8087 58.8165 84.2302 58.8165 81.7452V50.6018H73.8885V81.7452C73.8885 84.2313 72.3975 84.8076 68.7546 84.8924V85.8868H88.6296V84.8924C83.5781 84.8099 82.5841 84.2313 82.5841 81.7464V47.5349L71.3221 48.0321H58.8176V40.3298C58.8176 33.952 59.8116 31.3834 61.5489 29.6443C63.04 28.2363 65.1116 27.4905 67.8452 27.4905C71.3221 27.4905 73.9721 29.2307 74.9673 31.136C73.5576 32.1304 72.5646 33.8684 72.5646 35.5261C72.5646 39.0857 75.1311 40.496 77.7811 40.496C80.6807 40.496 82.6688 38.3421 82.6688 35.2775C82.6688 31.0512 78.4441 26 67.7616 26C62.2967 26 57.8247 27.408 54.5952 30.6388C51.6956 33.622 50.122 37.9274 50.122 44.9675V47.7835L43 49.6062V50.6843H50.122V81.7441C50.122 84.2302 48.962 84.8065 44.2414 84.8912V85.8856H44.2425ZM106.342 70.4789L110.069 66.7521L119.259 80.0864C121.248 82.986 120.999 84.4776 116.695 84.8924V85.8868H136.321V84.8924C132.511 84.4788 131.683 83.8166 128.122 78.7642L115.7 61.2025L120.173 56.7299C125.471 51.5928 128.453 49.6876 133.256 48.6954V47.701H115.7V48.6954C121.495 49.7712 122.076 52.1725 118.515 55.9004L106.342 68.4098V26.4972L91.021 26.9922V27.9866C96.818 28.1527 97.6471 29.3946 97.6471 32.2106V81.7441C97.6471 84.2302 96.5695 84.8065 91.7665 84.8912V85.8856H110.732V84.8912C107.502 84.8087 106.342 84.2302 106.342 81.7452V70.4789ZM152.476 82.5724C148.251 82.5724 146.349 79.7564 146.349 75.781C146.349 70.1478 148.751 67.7465 159.764 65.5915V77.9348C158.106 80.2547 155.456 82.5735 152.475 82.5735L152.476 82.5724ZM147.672 86.384C152.806 86.384 156.7 83.4855 159.845 79.8411H160.176C160.673 84.3138 162.413 86.219 167.05 86.219C169.948 86.219 172.101 85.2246 175 83.4019L174.669 82.5747C169.866 84.5635 168.375 82.8233 168.375 78.7665V59.4657C168.375 50.934 163.405 47.2897 154.05 47.2897C144.692 47.2897 138.648 50.8515 138.648 55.7389C138.648 58.4735 140.551 60.6262 143.451 60.6262C146.681 60.6262 148.421 58.6374 148.421 55.7389C148.421 54.0811 147.591 52.5906 146.184 51.264C147.673 49.7746 150.239 48.8638 153.056 48.8638C157.942 48.8638 159.765 51.8448 159.765 58.0577V64.0208C157.859 64.9305 148.17 65.4277 142.042 68.8234C138.565 70.7286 137.074 73.9594 137.074 77.1901C137.074 81.8289 140.303 86.384 147.673 86.384" fill="white"/>
</g>
</g>
</g>
</g>
</g>
<defs>
<filter id="filter0_f_7352_750" x="-1254" y="-1367" width="2114" height="1663" filterUnits="userSpaceOnUse" color-interpolation-filters="sRGB">
<feFlood flood-opacity="0" result="BackgroundImageFix"/>
<feBlend mode="normal" in="SourceGraphic" in2="BackgroundImageFix" result="shape"/>
<feGaussianBlur stdDeviation="397" result="effect1_foregroundBlur_7352_750"/>
</filter>
<filter id="filter1_f_7352_750" x="-1254" y="-751" width="2114" height="1723" filterUnits="userSpaceOnUse" color-interpolation-filters="sRGB">
<feFlood flood-opacity="0" result="BackgroundImageFix"/>
<feBlend mode="normal" in="SourceGraphic" in2="BackgroundImageFix" result="shape"/>
<feGaussianBlur stdDeviation="397" result="effect1_foregroundBlur_7352_750"/>
</filter>
<filter id="filter2_f_7352_750" x="-1254" y="62" width="2114" height="1667" filterUnits="userSpaceOnUse" color-interpolation-filters="sRGB">
<feFlood flood-opacity="0" result="BackgroundImageFix"/>
<feBlend mode="normal" in="SourceGraphic" in2="BackgroundImageFix" result="shape"/>
<feGaussianBlur stdDeviation="397" result="effect1_foregroundBlur_7352_750"/>
</filter>
<clipPath id="clip0_7352_750">
<rect width="1920" height="8158" fill="white" transform="translate(-1140 -6033)"/>
</clipPath>
</defs>
</svg>
