<svg width="144" height="89" viewBox="0 0 144 89" fill="none" xmlns="http://www.w3.org/2000/svg">
<rect x="0.664336" y="1.55008" width="142.671" height="86.6713" rx="19.3357" fill="#121E28"/>
<rect x="0.664336" y="1.55008" width="142.671" height="86.6713" rx="19.3357" stroke="#2A3744" stroke-width="1.32867"/>
<path fill-rule="evenodd" clip-rule="evenodd" d="M33.523 64.0062L35.9821 70.5539H37.2406L39.7485 63.8425H38.4127L36.659 68.8971L34.8775 63.7735L33.523 64.0062ZM45.2003 63.8418V70.5231H49.1798V69.4398H46.4678V67.6006H48.656L48.4819 66.497H46.4678V64.9266H49.0823V63.8418H45.2003ZM58.9691 63.8418V68.2207L55.9674 63.8425H54.7562V70.5239H55.9471V65.925L59.0952 70.5246H60.1608V63.8418H58.9691ZM65.6899 63.8418V64.9551H67.674V70.5254H68.9617V64.9551H71.0629L70.8791 63.8425L65.6899 63.8418ZM81.839 67.9091V63.8433H80.5505V67.8994C80.5505 68.9279 80.0763 69.5284 79.1277 69.5284C78.1882 69.5284 77.7244 68.8881 77.7244 67.8716V63.8433H76.4457V67.9384C76.4457 69.6816 77.5008 70.641 79.1187 70.641C80.7351 70.641 81.8383 69.6816 81.8383 67.9084L81.839 67.9091ZM90.8441 67.726C91.6666 67.4257 92.1799 66.8161 92.1799 65.8469C92.1799 64.5482 91.2793 63.8425 89.7883 63.8425H87.7148V70.5239H88.9951V67.9669H89.5759L91.3184 70.5922L92.6256 70.3505L90.8441 67.726ZM90.9206 65.9145C90.9206 66.6112 90.4269 66.988 89.6329 66.988H88.9853V64.868H89.6907C90.4952 64.868 90.9214 65.2456 90.9214 65.9137L90.9206 65.9145ZM101.978 70.5246V69.4398H99.2676V67.6006H101.456L101.282 66.4955H99.2684V64.9266H101.883V63.8433H97.9994V70.5246H101.978ZM111.622 68.6163C111.622 67.5803 111.119 67.1059 109.744 66.5443C108.815 66.157 108.601 65.9535 108.601 65.5279C108.601 65.1202 108.883 64.8109 109.521 64.8109C110.044 64.8109 110.615 65.0136 111.099 65.3327L111.292 64.1706C110.808 63.9191 110.287 63.7652 109.53 63.7652C108.282 63.7652 107.371 64.4521 107.371 65.6345C107.371 66.6705 107.894 67.0954 109.191 67.6284C110.159 68.0443 110.392 68.2477 110.392 68.7417C110.392 69.2747 109.985 69.5555 109.394 69.5555C108.726 69.5555 108.03 69.2942 107.468 68.9646L107.273 70.1358C107.93 70.4469 108.648 70.606 109.374 70.6012C110.664 70.6012 111.621 69.9233 111.621 68.6156L111.622 68.6163ZM29.3919 57.9426H42.7599V57.282C40.0096 57.2272 39.0738 56.8428 39.0738 55.192V34.5023H49.0868V55.192C49.0868 56.8436 48.0962 57.2265 45.6761 57.2828V57.9434H58.8798V57.2828C55.5239 57.228 54.8635 56.8436 54.8635 55.1928V32.4649L47.3818 32.7952H39.0746V27.6783C39.0746 23.4413 39.735 21.7349 40.8891 20.5795C41.8797 19.6441 43.256 19.1487 45.072 19.1487C47.3818 19.1487 49.1423 20.3048 49.8034 21.5705C48.8669 22.2311 48.2073 23.3857 48.2073 24.487C48.2073 26.8518 49.9122 27.7887 51.6727 27.7887C53.5991 27.7887 54.9198 26.3578 54.9198 24.3219C54.9198 21.5142 52.1132 18.1585 45.0165 18.1585C41.3859 18.1585 38.415 19.0939 36.2695 21.2402C34.3432 23.2221 33.2978 26.0823 33.2978 30.7592V32.63L28.5664 33.8409V34.5571H33.2978V55.1913C33.2978 56.8428 32.5271 57.2257 29.3911 57.282V57.9426H29.3919ZM70.6464 47.7074L73.1228 45.2315L79.2283 54.09C80.549 56.0163 80.3839 57.0073 77.5248 57.2828V57.9434H90.5627V57.2828C88.0315 57.008 87.4815 56.5681 85.1161 53.2116L76.8637 41.5448L79.8354 38.5734C83.3549 35.1607 85.336 33.895 88.5268 33.2358V32.5752H76.8637V33.2358C80.7134 33.9505 81.0991 35.5458 78.7338 38.0224L70.6464 46.3328V18.4888L60.4684 18.8176V19.4782C64.3196 19.5886 64.8704 20.4136 64.8704 22.2844V55.1913C64.8704 56.8428 64.1545 57.2257 60.9637 57.282V57.9426H73.5633V57.282C71.4171 57.2272 70.6464 56.8428 70.6464 55.192V47.7074ZM101.295 55.7415C98.4887 55.7415 97.225 53.8708 97.225 51.2297C97.225 47.4874 98.8204 45.8922 106.137 44.4605V52.6606C105.035 54.2018 103.275 55.7423 101.295 55.7423L101.295 55.7415ZM98.1037 58.2737C101.514 58.2737 104.101 56.3481 106.191 53.9271H106.411C106.741 56.8984 107.897 58.1641 110.977 58.1641C112.903 58.1641 114.333 57.5035 116.259 56.2926L116.039 55.743C112.848 57.0643 111.857 55.9082 111.857 53.2131V40.3909C111.857 34.723 108.556 32.302 102.341 32.302C96.1241 32.302 92.1086 34.6682 92.1086 37.9151C92.1086 39.7318 93.373 41.1619 95.2994 41.1619C97.4456 41.1619 98.6012 39.8406 98.6012 37.9151C98.6012 36.8138 98.0497 35.8236 97.1154 34.9422C98.1045 33.9528 99.8094 33.3477 101.68 33.3477C104.927 33.3477 106.138 35.3281 106.138 39.4555V43.4171C104.871 44.0214 98.4346 44.3517 94.3636 46.6076C92.0538 47.8733 91.0632 50.0196 91.0632 52.1659C91.0632 55.2476 93.2079 58.2737 98.1045 58.2737" fill="white"/>
</svg>
